# xmcd
#
# Track frame offsets:
# 150
# 15772
# 49818
#
# Disc length: 1004 seconds
#
# Revision: 0
# Processed by: cddbd v1.4PL0 Copyright (c) Steve Scherf et al.
# Submitted via: Audion 3.0.2 (http://www.panic.com/audion/)
#
DISCID=1503ea03
DTITLE=Mint Royale - Blue Song
DYEAR=1900
DGENRE=
TTITLE0=Blue Song (Radio Edit)
TTITLE1=Blue Song (ATFC Remix)
TTITLE2=Blue Song (Kompis Hotpants Mix)
EXTD=
EXTT0=
EXTT1=
EXTT2=
PLAYORDER=
